<svg width="32" height="29" viewBox="0 0 32 29" fill="none" xmlns="http://www.w3.org/2000/svg">
<path d="M28.3091 3.71508C27.2523 2.55367 26.0143 1.64102 24.6301 1.00297C23.1941 0.339375 21.6599 0.00203125 20.0255 0C18.6255 0.00265625 17.2728 0.260078 16.0052 0.766485C14.6681 0.259454 13.2702 0.00203125 11.8054 0C10.2227 0.00398437 8.70156 0.319063 7.28391 0.936095C5.25445 1.81984 3.50672 3.29836 2.23055 5.21125C0.971484 7.09656 0.216172 9.32977 0.0458592 11.6698C0.015703 12.0904 0 12.5083 0 12.9263C0 14.9138 0.339375 16.8352 1.00953 18.638C2.06555 21.483 3.90766 23.8728 6.33602 25.5498C6.33734 25.5505 6.33805 25.5512 6.3393 25.5518C6.33992 25.5518 6.33992 25.5525 6.33992 25.5525L6.36094 25.5662C6.36219 25.5669 6.36414 25.5669 6.36547 25.5676C8.9832 27.3704 12.2895 28.3229 15.9291 28.3229H15.9508C18.6327 28.3229 21.063 27.823 23.1751 26.8365C24.6352 26.1552 25.9455 25.2393 27.0695 24.1146C28.5769 22.6091 29.741 20.7592 30.5297 18.6158C31.207 16.7704 31.5837 14.7475 31.6178 12.7671L31.6205 12.5215C31.6205 9.19164 30.4446 6.06422 28.3091 3.71508ZM28.8987 12.7187C28.8724 14.1979 28.6196 15.721 28.1676 17.1235C27.7929 18.283 27.2858 19.358 26.6609 20.3184C25.614 21.9234 24.2553 23.1857 22.6216 24.0707C20.7421 25.0861 18.4952 25.6017 15.9436 25.6023C13.8152 25.6023 11.8617 25.242 10.1382 24.5312C7.77461 23.5552 5.91094 21.9738 4.59742 19.8302C3.36914 17.8231 2.72062 15.4359 2.72133 12.9263C2.72133 12.5739 2.73375 12.222 2.75859 11.8677C2.94203 9.36391 3.945 7.05734 5.58203 5.37242C6.39234 4.53719 7.33047 3.88406 8.37016 3.4307C9.45367 2.95969 10.6191 2.72063 11.8342 2.72063C12.4311 2.72063 13.0298 2.78086 13.62 2.89875C12.6878 3.66523 11.8945 4.59734 11.2571 5.67438C10.1815 7.49617 9.61281 9.64688 9.61281 11.8925C9.61211 14.2502 10.3386 16.5044 11.7137 18.4106C11.909 18.6825 12.2259 18.845 12.562 18.845C12.7814 18.845 12.9924 18.7775 13.172 18.6484C13.6391 18.3111 13.7445 17.6566 13.4077 17.1895C12.2921 15.6409 11.702 13.8087 11.702 11.8925C11.702 9.39008 12.5326 7.07828 14.0399 5.38289C14.7874 4.54437 15.6691 3.8893 16.6616 3.43727C17.7052 2.96172 18.8463 2.72063 20.053 2.71992C21.2505 2.72063 22.4073 2.97414 23.4902 3.47336C25.0703 4.2018 26.4152 5.41828 27.3795 6.99242C28.3739 8.61711 28.8994 10.5293 28.8994 12.5214L28.8987 12.7187Z" fill="#FF9271"/>
</svg>
