<svg width="40" height="40" viewBox="0 0 40 40" fill="none" xmlns="http://www.w3.org/2000/svg">
<path d="M11.6667 33.3334H28.3333" stroke="#4A4A4A" stroke-width="2" stroke-linecap="round" stroke-linejoin="round"/>
<path d="M16.6667 33.3333C25.8333 29.1666 18 22.6666 21.6667 16.6666" stroke="#4A4A4A" stroke-width="2" stroke-linecap="round" stroke-linejoin="round"/>
<path d="M15.8333 15.6666C17.6667 17 18.8333 19.3333 19.6667 21.8333C16.3333 22.5 13.8333 22.5 11.6667 21.3333C9.66667 20.3333 7.83334 18.1666 6.66667 14.3333C11.3333 13.5 14 14.3333 15.8333 15.6666Z" stroke="#FF9271" stroke-width="2" stroke-linecap="round" stroke-linejoin="round"/>
<path d="M23.5 9.99996C22.2293 11.9859 21.5901 14.3102 21.6667 16.6666C24.8333 16.5 27.1667 15.6666 28.8333 14.3333C30.5 12.6666 31.5 10.5 31.6667 6.66663C27.1667 6.83329 25 8.33329 23.5 9.99996Z" stroke="#FF9271" stroke-width="2" stroke-linecap="round" stroke-linejoin="round"/>
</svg>
